<svg width="54" height="50" viewBox="0 0 54 50" fill="none" xmlns="http://www.w3.org/2000/svg">
<path d="M47.1997 47.7223C47.0451 47.714 46.886 47.7066 46.7301 47.6989C47.0146 47.1231 46.6446 46.3137 45.9731 46.1613C44.0023 45.7132 41.9721 45.9451 39.9392 45.3812C36.6771 44.4763 33.6398 42.8234 30.8364 41.0342C25.2991 37.4995 19.3854 30.9615 27.043 26.3245C27.949 25.7763 27.6858 24.137 26.451 24.2514C24.5292 24.4299 22.6044 24.5269 20.677 24.6291C21.6967 24.0899 22.524 22.8291 23.1642 22.083C24.457 20.5762 25.9424 19.9738 27.9877 19.8577C29.2704 19.7849 29.4602 18.1985 28.2831 17.7889C28.0611 17.7116 27.8457 17.3937 27.6368 17.2569C27.1433 16.9336 26.6378 16.6816 26.0908 16.4486C25.5851 16.2332 25.0675 16.0449 24.5488 15.859C27.1181 15.0165 28.7326 12.1083 31.8301 11.9803C32.9562 11.9338 33.4542 10.7301 32.7193 9.94465C31.9318 9.10294 31.3439 8.22855 30.6922 7.3956C32.3059 7.32176 33.9162 7.39188 35.5299 7.63438C36.0786 7.71699 36.5457 6.95336 35.9433 6.70448C33.5289 5.70712 30.9028 5.59504 28.333 5.22849C26.8619 5.01866 26.1133 6.62852 27.3332 7.47767C28.3123 8.15923 28.9623 9.06681 29.6221 9.97945C28.5893 10.2764 27.6281 10.7285 26.6765 11.3904C25.2823 12.3601 23.556 13.3707 22.5403 14.6967C22.2062 15.1331 22.484 15.7472 22.9503 15.9812C22.9702 16.0916 23.0298 16.1947 23.1491 16.2595C23.7804 16.6024 24.4234 16.9251 25.0558 17.2664C25.1874 17.3374 25.6386 17.5961 26.0637 17.8627C24.5575 18.0718 23.1976 18.604 21.9888 19.6745C21.3469 20.2429 20.8162 20.9273 20.2371 21.551C19.4977 22.3473 18.6617 22.8033 18.5091 23.9067C18.4307 24.4737 19.0387 24.8273 19.535 24.8796C19.6221 24.8889 19.7038 24.869 19.7887 24.8655C19.391 25.2538 19.559 26.0385 20.3034 26.0783C21.2702 26.1301 22.2361 26.1803 23.2015 26.2377C18.6015 30.4749 21.2016 36.3584 26.1043 40.7136C27.8995 42.3081 31.95 45.2524 36.1332 47.1852C22.7016 46.3206 8.12368 43.7341 3.81778 30.3442C1.32078 22.5789 5.45864 14.1447 11.1035 8.64768C14.0802 5.74882 17.8921 3.83006 22.0255 2.9416C26.9515 1.88261 30.8334 4.00643 35.1309 5.83568C36.2195 6.2989 37.2949 5.12969 36.4315 4.23751C30.3886 -2.00644 20.0242 -0.551164 13.1832 3.46963C5.14974 8.1911 0.211183 17.148 0.00449951 25.9837C-0.210025 35.1637 7.27734 43.2505 15.8438 46.625C25.8503 50.5669 36.6068 50.2299 47.1997 49.6503C48.509 49.5783 48.5104 47.7916 47.1997 47.7223Z" fill="#00B2A0"/>
<path d="M53.4368 44.1407C52.4462 41.9994 50.7622 40.1715 48.8043 38.5858C48.8237 34.9076 48.8718 31.2282 48.8379 27.5503C48.8368 27.4198 48.8206 27.2987 48.794 27.1853C48.9354 25.8023 48.8262 24.4548 48.5725 23.1053C48.5744 23.1042 48.5767 23.1026 48.5786 23.1016C49.4994 22.8657 50.2455 22.1592 50.9754 21.6065C51.561 21.1629 52.1522 20.7129 52.7042 20.2282C52.8162 20.1424 52.9218 20.0489 53.0248 19.9552C54.622 18.4956 52.1987 16.2064 50.5976 17.6531C50.3584 17.8691 50.103 18.0677 49.8476 18.2654C49.6784 18.396 49.5064 18.5238 49.3353 18.6518C49.2443 18.7195 49.153 18.787 49.0614 18.8542C49.309 18.6717 48.8534 19.0043 48.8567 19.0019C48.4952 19.2635 48.0978 19.5137 47.7264 19.7886C47.4665 18.9419 47.1377 18.0499 46.6398 17.3477C47.0484 17.166 47.4413 16.9655 47.7922 16.7317C49.251 15.7609 50.5298 14.0807 49.8316 12.3104C49.421 11.2695 48.6335 10.5297 47.6455 9.95391C47.4281 9.82721 47.1859 9.71087 46.9473 9.59374C46.8058 9.35868 46.6482 9.13078 46.4513 8.92175C46.3569 8.82135 46.2614 8.74459 46.1665 8.66225C46.2029 8.38655 46.029 8.08747 45.6635 8.10102C45.5103 8.10659 45.3602 8.10394 45.2092 8.10288C44.8202 7.98255 44.4346 7.98202 44.0576 8.06994C42.8374 8.02133 41.6911 8.03541 40.6193 8.94433C39.9013 9.5531 39.5837 10.3369 39.5761 11.1765C38.5704 13.4358 38.2982 16.2215 40.8711 17.5201C41.2898 17.7315 41.7441 17.8608 42.2095 17.9501C41.9415 18.8149 41.7396 19.6861 41.5788 20.5645C39.9069 20.9137 38.1725 21.815 36.761 22.3608C34.6894 22.9727 35.5511 26.0092 37.6594 25.4514C38.8516 25.1359 39.9971 24.6798 41.1467 24.2474C41.0946 25.095 41.0655 25.9521 41.054 26.8214C41.0515 27.0108 41.1103 27.2217 41.2005 27.4212C40.9025 28.2871 40.5944 29.2695 40.3936 30.2348C40.1264 31.1155 39.8548 31.9955 39.5618 32.8694C36.729 31.4016 32.9869 29.8693 30.5554 31.3912C30.5484 31.3822 30.5403 31.3737 30.533 31.3647C29.648 30.2478 27.7957 31.1899 28.518 32.4821C33.0541 40.5991 42.0518 45.1509 51.3106 46.7642C53.0265 47.0627 54.1157 45.608 53.4368 44.1407ZM33.181 34.2768C33.4986 34.3432 33.8302 34.4441 34.1559 34.5294C34.1155 34.7669 34.1542 35.0149 34.2897 35.2309C34.3203 35.2792 34.3595 35.3228 34.3908 35.3703C33.9817 35.0147 33.5739 34.6572 33.181 34.2768ZM42.4831 34.4638C42.5744 34.4088 42.6615 34.3406 42.7391 34.2518C43.3214 33.5886 43.4591 32.8279 43.5748 32.0239C44.0924 30.9931 44.5432 29.941 44.9205 28.8682C45.1317 28.8956 45.3479 28.911 45.5621 28.9312C45.552 31.3862 45.5629 33.8412 45.5809 36.2965C44.5458 35.6402 43.4972 35.0311 42.4831 34.4638Z" fill="#00B2A0"/>
</svg>
